<?xml version="1.0" encoding="UTF-8" standalone="no"?>
<!-- Created with Inkscape (http://www.inkscape.org/) -->

<svg
   version="1.1"
   id="svg1"
   width="717.08215"
   height="154.2832"
   viewBox="0 0 717.08215 154.2832"
   sodipodi:docname="logo_exorcizphobia2 (1).pdf"
   xmlns:inkscape="http://www.inkscape.org/namespaces/inkscape"
   xmlns:sodipodi="http://sodipodi.sourceforge.net/DTD/sodipodi-0.dtd"
   xmlns="http://www.w3.org/2000/svg"
   xmlns:svg="http://www.w3.org/2000/svg">
  <defs
     id="defs1" />
  <sodipodi:namedview
     id="namedview1"
     pagecolor="#ffffff"
     bordercolor="#000000"
     borderopacity="0.25"
     inkscape:showpageshadow="2"
     inkscape:pageopacity="0.0"
     inkscape:pagecheckerboard="0"
     inkscape:deskcolor="#d1d1d1">
    <inkscape:page
       x="0"
       y="-2.5542372e-14"
       width="717.08215"
       height="154.28319"
       id="page2"
       margin="0"
       bleed="0" />
  </sodipodi:namedview>
  <g
     id="g1"
     inkscape:groupmode="layer"
     inkscape:label="1"
     transform="translate(-17.0772,-28.890802)">
    <g
       id="g2">
      <path
         id="path2"
         d="m 0,0 1.187,-1.523 -1.023,-1.701 0.979,-1.577 -2.005,-1.634 0.78,-1.619 -0.354,-1.501 -0.364,-1.679 1.245,-1.518 0.408,-1.724 -0.988,-1.514 1.159,-1.722 0.179,-1.566 -1.285,-1.735 0.246,-1.357 0.447,-1.974 -0.015,-1.333 -1.192,-1.811 2.083,-1.304 -1.735,-1.71 1.41,-1.823 -1.475,-1.461 0.765,-2.42 -2.185,3.196 -1.887,0.475 0.186,2.61 -2.735,-0.936 0.246,2.509 -1.057,1.549 -1.754,0.688 -1.024,1.257 -0.59,1.389 -1.041,1.445 -1.475,0.773 -1.248,1.091 -0.784,1.451 -1.627,0.668 -1.193,1.263 -1.216,0.76 -1.386,1.242 0.08,2.128 -1.904,0.203 -0.775,1.502 -1.016,1.539 -1.601,0.607 -0.952,1.743 0.15,2.357 -3.586,-0.147 2.731,1.35 -0.476,2.084 2.709,0.308 0.548,1.533 0.503,1.679 -0.028,1.797 1.434,1.148 0.391,1.922 1.437,0.707 -0.016,1.969 1.954,0.361 -0.011,2.385 2.151,0.648 -0.422,1.895 0.323,1.789 1.602,1.208 1.906,0.701 1.727,0.104 1.32,-2.466 2.026,1.626 1.443,-0.386 1.841,-0.296 1.609,0.958 1.76,-1.589 2.254,1.807 0.017,-2.323 -1.186,-1.74 L 1.101,12.908 0.146,11.36 -0.012,9.63 0.457,8.062 -0.025,6.447 -0.356,4.555 1.79,3.192 -0.425,1.897 Z m 13.968,-37.039 -0.575,1.508 0.863,1.578 -0.696,1.819 -1.093,1.578 0.55,1.61 -0.242,1.472 0.306,1.789 -0.384,1.621 -0.178,1.402 0.099,1.763 1.215,1.386 0.034,1.993 -1.123,1.542 -0.627,1.609 -0.414,1.899 1.473,1.332 0.829,1.903 -1.742,1.443 -0.564,1.531 1.14,1.432 -0.875,1.799 0.686,1.645 -0.455,1.76 1.546,1.386 -1.219,1.652 -0.071,1.798 0.083,1.541 0.606,1.464 -1.324,1.806 0.933,1.614 0.053,1.514 -0.739,1.754 -0.339,1.421 -0.267,1.699 0.059,1.724 0.942,1.651 1.059,1.738 -1.773,1.462 -0.786,1.614 0.23,1.7 0.611,1.218 -1.155,0.853 -1.8,-1.268 L 7.071,29.023 6.156,29.224 4.3,28.163 2.765,30.252 0.96,30.251 -0.603,29.026 -2.401,28.344 -3.678,30.26 -5.43,30.112 l -1.417,-1.116 -1.865,-0.837 -1.511,1.755 -1.507,-0.771 -1.773,0.567 -1.553,-0.146 -1.829,-1.248 -1.314,0.518 -1.628,0.288 -1.494,-0.099 -2.266,-0.407 0.479,-2.164 -1.473,-0.939 0.006,-1.901 -1.783,-0.793 0.733,-2.561 -2.595,-0.083 0.502,-2.07 -1.696,-0.916 -1.299,-1.087 0.857,-2.289 -1.736,-1.083 -1.891,-0.639 0.446,-2.26 -0.986,-1.376 -0.22,-1.835 -1.041,-1.349 -2.522,-0.277 -0.307,-1.709 0.154,-1.946 -0.894,-1.396 -1.724,-0.804 -0.435,-1.64 -0.16,-1.787 -1.066,-0.869 -0.638,-1.774 2.54,-0.124 1.118,-1.302 1.317,-1.083 -0.052,-2.023 1.562,-1.043 1.437,-1.073 0.914,-0.977 1.967,-0.804 1.032,-1.07 -0.224,-2.463 1.594,-0.914 1.554,-0.564 1.75,-0.557 1.024,-1.522 -0.703,-2.483 1.513,-1.502 2.848,0.766 -0.171,-2.314 0.571,-1.989 1.896,-0.09 1.549,-0.906 -0.572,-2.373 2.127,-0.4 0.972,-1.285 0.969,-1.395 2.014,-0.33 0.82,-1.554 1.677,-0.673 -1.01,-2.905 1.782,-0.759 2.13,-0.462 0.394,-1.594 0.673,-2.036 1.392,-0.604 2.085,-0.354 0.236,-2.139 2.526,0.375 1.09,-1.79 0.384,-1.428 0.581,-1.487 2.004,-0.448 0.311,-1.793 1.462,-0.981 0.743,-1.602 0.971,-1.482 1.485,-0.638 0.449,-1.808 1.56,-0.787 1.478,-1.216 -1.164,2.007 0.776,1.589 1.184,1.616 -0.73,1.56 0.87,1.537 -0.174,1.801 -0.929,1.525 -0.025,1.352 -0.055,2.001 -0.953,1.345 2.218,1.796 -1.978,1.498 -0.192,1.781 0.499,1.4 -0.914,1.658 1.991,1.498 z"
         style="fill:#231f20;fill-opacity:1;fill-rule:nonzero;stroke:none"
         transform="matrix(1.3333333,0,0,-1.3333333,202.434,96.619333)" />
      <path
         id="path3"
         d="m 0,0 -0.186,-1.806 -1.615,-1.082 -0.451,-1.663 -0.602,-1.8 -2.467,0.228 -0.852,-1.602 -0.125,-1.959 -1.999,-0.377 -1.579,-1.184 0.713,-2.661 -2.899,0.537 1.339,-2.977 -2.888,0.196 -1.298,-1.115 -1.642,-1.175 0.002,-1.771 -0.923,-1.516 -0.573,-1.516 -1.857,-0.516 -0.364,-1.807 -0.899,-1.542 -1.231,-1.445 -1.419,-0.216 -1.133,1.198 0.528,1.712 -0.275,1.59 0.584,1.62 -0.8,1.557 -0.324,1.69 1.245,1.541 -1.038,1.833 0.452,1.538 0.781,1.493 0.791,1.666 -0.656,1.533 1.31,1.598 -2.671,1.389 0.582,1.86 1.635,1.341 -0.498,1.866 -1.327,1.621 0.811,1.673 0.542,1.557 -0.692,1.776 -0.841,1.508 0.039,1.499 0.847,1.644 -1.24,1.613 2.019,1.388 -1.512,1.836 1.532,1.569 -0.76,1.621 -0.34,1.622 -0.78,1.824 2.077,1.465 -0.765,1.425 0.953,-0.399 1.709,-0.418 1.436,0.203 1.658,0.27 1.286,1.785 1.948,-0.534 1.429,-1.444 1.776,-0.833 1.532,1.215 1.329,-0.776 -0.276,-1.912 0.518,-1.599 0.454,-1.519 2.37,-0.509 -0.509,-2.207 2.278,-0.384 -0.287,-1.901 1.666,-1.305 0.264,-1.499 L -1.895,8.438 -0.776,7.199 0.857,6.341 0.248,3.913 1.854,3.196 1.373,2.054 2.213,0.096 Z m 16.855,1.577 -1.426,1.236 -0.412,1.573 -1.171,1.208 -0.852,1.43 -1.508,0.794 0.394,2.228 -1.147,1.28 -2.295,0.827 2.424,2.524 -1.686,1.479 -1.406,0.694 -0.945,1.308 -1.759,0.492 -1.15,1.608 1.443,2.561 -2.718,0.221 -0.312,1.751 -0.643,1.27 -0.438,1.892 -1.384,0.779 -0.815,1.524 -1.292,1.129 -0.122,1.76 -1.658,0.628 0.152,2.239 -1.814,0.225 -1.527,-1.245 -1.571,1.09 -1.595,0.499 -1.693,0.1 -1.306,-1.611 -1.878,1.03 -1.482,-0.351 -1.636,-1.379 -1.615,0.319 -1.593,1.383 -1.453,-0.554 -1.733,-0.805 -1.403,-0.206 -1.643,0.684 -1.611,-0.683 -1.551,1.239 -1.506,0.762 -1.797,-1.1 -1.407,0.508 0.621,-1.864 -1.154,-1.324 -0.23,-1.852 1.499,-1.599 -0.75,-1.663 0.43,-1.992 -1.148,-1.345 1.292,-1.547 -0.62,-1.566 -1.446,-1.835 1.214,-1.923 1.987,-1.264 -2.138,-1.655 1.415,-1.603 -1.818,-1.37 0.063,-1.641 -0.263,-1.834 0.381,-1.877 1.756,-1.271 -1.023,-1.708 1.554,-1.889 -1.566,-1.385 -1.188,-1.605 1.14,-1.642 -0.806,-1.752 0.659,-1.47 -0.929,-1.55 0.394,-1.62 0.445,-1.718 0.211,-1.731 0.678,-1.617 -1.26,-1.54 0.172,-1.779 0.936,-1.412 0.568,-1.664 -1.356,-1.497 -0.61,-1.773 1.969,-1.593 -1.076,-1.665 -0.212,-1.457 0.222,-1.776 0.204,-1.639 -1.47,-1.477 2.342,-1.683 -1.006,-1.701 -0.663,-1.684 1.931,-1.497 -0.857,-1.697 -0.575,-1.7 0.162,-1.66 1.14,-1.535 -1.063,-1.627 -0.577,-1.63 1.141,-1.519 1.139,-1.439 -1.351,-1.829 -0.742,-1.563 0.258,-2.558 1.86,1.706 1.117,1.638 0.62,1.106 1.152,1.351 2.139,0.337 0.187,1.913 1.051,1.202 1.496,0.732 0.747,1.546 1.919,0.879 -0.845,2.462 1.901,0.197 0.447,1.909 1.554,1.189 1.194,0.928 1.046,1.268 0.471,1.865 2.289,-0.069 0.611,1.567 1.942,0.888 -0.834,2.56 1.913,0.475 0.294,1.823 1.788,0.714 0.96,1.246 2.072,0.535 -1.294,3.124 2.809,-0.364 0.861,1.4 0.509,1.725 0.809,1.469 0.711,1.511 2.217,0.198 0.6,1.622 -0.238,2.23 2.738,-0.091 -0.059,2.157 1.799,0.307 1.778,0.784 0.727,1.506 0.003,2.062 0.504,1.827 1.16,1.515 2.753,-0.717 0.022,2.308 2.387,0.205 -0.971,2.881 2.266,0.307 z"
         style="fill:#231f20;fill-opacity:1;fill-rule:nonzero;stroke:none"
         transform="matrix(1.3333333,0,0,-1.3333333,547.88933,103.30853)" />
      <path
         id="path4"
         d="M 0,0 1.465,-1.053 3.334,-1.642 3.045,-4.209 4.62,-4.922 6.005,-5.888 7.914,-6.069 7.831,-8.547 l 1.247,-1.34 2.924,0.52 -0.293,-2.62 1.711,0.084 1.263,-1.951 1.717,0.481 1.595,0.171 1.735,-1.262 1.607,1.206 1.47,-0.031 1.712,0.003 1.523,1.509 1.84,0.088 1.628,-0.17 1.539,-0.837 1.536,-1.346 1.463,1.637 1.668,0.995 1.84,-1.148 1.57,-0.127 1.695,-1.587 1.356,2.484 1.628,-0.342 1.614,0.367 1.83,0.984 1.596,-0.787 1.572,-0.152 1.642,-1.197 1.511,1.722 1.575,-1.538 1.779,0.286 1.529,0.523 1.929,0.921 1.367,-2.432 1.629,0.763 1.665,-0.415 1.543,0.961 1.683,-0.625 1.578,0.743 1.618,-0.334 1.528,0.983 1.987,0.243 1.394,-2.035 1.108,0.337 -1.453,0.077 -1.383,-1.509 0.074,-1.868 -0.151,-2.111 -1.737,-0.346 -1.006,-1.304 -1.04,-0.925 -0.774,-1.688 -1.171,-1.337 -2.294,-0.381 0.915,-2.296 -1.511,-0.93 -1.495,-1.195 -1.58,-0.358 0.223,-2.297 -2.24,-0.094 -1.471,-0.845 -1.436,-0.978 0.768,-2.791 -3.063,0.132 0.781,-2.511 -1.113,-1.023 -0.744,-1.526 -1.872,-0.268 -0.355,-1.481 1.193,-0.406 1.563,0.848 1.836,0.688 1.631,-1.394 1.583,0.415 1.749,-1.207 1.84,0.374 1.003,-0.028 2.163,-0.986 1.796,1.289 1.12,-0.348 1.964,0.779 1.652,0.857 1.594,-2.758 1.643,2.128 1.782,0.11 1.695,-2.106 1.588,1.578 1.093,-0.065 -0.798,-0.638 -1.089,-1.204 0.39,-2.398 -2.791,0.064 -0.821,-1.238 -1.007,-1.623 -0.418,-1.521 -0.913,-1.345 -1.02,-1.615 -2.682,0.712 -1.717,-0.952 0.419,-2.448 -1.102,-1.301 -1.09,-1.296 -1.508,-0.684 -0.01,-2.315 -2.297,-0.044 -0.448,-1.831 -1.683,-0.729 -1.535,-0.909 -0.69,-1.415 -0.669,-1.607 -0.799,-0.186 0.912,0.723 -2.224,1.341 1.279,1.886 -0.158,1.574 -1.271,1.577 0.101,1.582 1.397,1.755 -1.536,1.622 1.534,2.532 -1.643,-2.297 -1.922,-0.777 0.981,-2.406 -2.398,-0.012 -1.799,-0.993 -0.215,-1.946 -1.535,-0.768 0.917,-2.611 -1.861,-1.263 -1.223,-0.841 -0.983,-1.177 -3.175,-0.22 0.965,-2.394 2.111,-1.567 -1.795,-1.534 0.764,-1.682 -1.876,-1.693 1.778,-1.477 -0.105,-1.687 -0.481,-1.656 0.846,-1.593 0.847,-1.628 -1.631,-1.482 -0.466,-1.869 0.259,-1.585 1.175,-1.708 0.986,-1.554 -2.097,-1.708 0.51,-1.645 -0.602,-1.602 1.283,-1.64 -0.716,-1.336 1.73,0.608 -0.919,2.592 2.305,0.091 0.642,2.059 1.211,1.023 1.75,0.536 0.472,1.632 1.31,1.218 2.497,0.037 -0.479,2.25 0.062,2.06 2.044,0.592 1.169,1.457 2.346,-0.179 0.645,1.929 0.781,1.165 0.361,2.197 2.587,-0.36 -0.94,2.938 2.949,-0.708 1.827,1.019 0.87,1.691 0.016,1.695 1.928,0.608 0.136,2.075 1.282,0.867 0.737,1.867 1.418,0.715 1.935,0.699 -0.975,2.699 2.774,-0.648 0.449,2.058 1.214,1.374 1.326,1.01 0.996,1.263 2.085,0.756 -1.255,3.03 3.235,-1.388 0.789,2.169 0.136,1.918 0.128,2.111 1.827,0.674 1.017,1.019 1.02,1.438 1.677,0.697 0.151,2.3 1.545,0.712 1.781,0.605 0.007,2.175 1.77,0.538 0.494,1.78 1.533,0.862 1.247,0.967 1.464,0.957 1.335,0.989 0.539,1.722 1.795,0.595 -0.626,2.586 2.207,0.523 1.003,1.199 0.818,0.934 -0.992,1.541 -1.905,-1.542 -1.545,0.459 -1.454,-0.996 -1.836,0.525 -1.584,1.121 -1.858,-0.017 -1.796,-0.038 -1.261,-1.885 -1.865,0.192 -1.691,0.349 -1.837,0.536 -1.554,-1.053 -1.819,0.566 -1.336,0.391 -1.76,0.105 -1.641,0.096 -1.747,-1 -1.571,1.777 -2.147,-1.717 1.98,0.964 1.662,0.717 -0.144,2.346 1.882,0.809 1.564,0.715 0.884,1.459 0.381,1.745 0.77,1.694 1.542,0.463 0.149,1.894 2.446,0.111 0.417,1.987 1.713,0.413 1.337,1.055 0.233,1.77 1.041,1.723 2.463,-0.439 -0.018,2.067 1.831,0.637 0.692,1.67 1.292,1.057 0.96,1.296 1.292,0.927 1.575,0.878 1.121,0.983 0.318,1.116 -0.972,-0.35 -1.8,-0.531 -1.416,1.887 L 101.98,1.039 100.418,0.547 98.784,1.258 97.086,1.486 95.264,1.529 93.836,1.033 92.359,0.489 90.755,0.556 89.048,0.255 87.49,1.868 86.032,-0.076 84.238,1.221 82.751,-0.755 81.03,-0.067 79.202,0.016 77.783,1.527 75.974,1.082 74.415,0.579 72.922,-0.683 71.288,-0.405 69.609,-0.239 68.246,-0.189 66.51,-0.012 64.672,-0.67 63.132,1.277 61.775,0.512 59.993,-0.059 58.617,-0.506 56.435,-1.531 54.778,0.124 53.45,2.123 51.891,1.189 50.301,-0.455 48.712,0.79 47.022,0.287 45.366,-0.022 43.856,1.31 42.237,0.535 40.699,1.277 39.225,-0.084 37.406,-0.327 35.544,-0.247 33.9,1.73 32.62,-0.756 31.068,-0.625 29.328,-1.183 27.468,-0.1 26.074,0.926 24.51,0.573 22.409,0.593 21.224,-0.135 19.404,-1.008 17.997,1.577 16.089,0.38 14.692,-1.069 13.204,0.391 11.626,0.546 9.903,1.415 8.49,-0.877 6.694,-0.339 5.159,-1.469 3.459,0.176 1.796,-0.313 Z"
         style="fill:#231f20;fill-opacity:1;fill-rule:nonzero;stroke:none"
         transform="matrix(1.3333333,0,0,-1.3333333,498.62,31.721467)" />
      <path
         id="path5"
         d="m 0,0 -0.975,-3.023 -1.039,-1.006 -1.58,-0.992 0.093,-2.081 -2.649,0.155 0.207,-2.403 -1.368,-0.896 -1.568,-0.547 -1.089,-1.536 -0.85,-1.013 -1.028,-1.205 -2.07,-0.241 -0.565,-1.888 -1.264,-1.626 0.927,-1.555 0.295,-1.568 -0.02,-1.655 -0.822,-1.699 0.432,-1.605 0.728,-1.49 1.056,-1.631 -0.363,-1.662 -0.301,-1.557 0.086,-1.57 -0.559,-1.812 0.632,-1.6 -0.524,-1.402 0.421,-1.686 -0.965,-1.562 0.558,-1.657 -0.646,-1.495 -0.834,-1.716 2.14,-1.482 -0.406,-1.78 -0.835,-1.59 1.642,-1.625 -1.25,-1.671 0.309,-1.347 0.227,-1.869 0.609,-1.591 0.147,-1.705 -2.253,-1.512 1.117,-1.611 -0.559,-1.597 2.39,-1.572 -1.753,-1.838 1.228,1.439 0.737,1.434 2.191,-0.066 0.626,1.893 1.211,1.047 -0.317,2.461 2.093,0.576 1.697,0.328 1.94,0.256 0.558,2.066 0.454,1.521 0.602,1.486 0.818,1.397 0.096,1.523 -0.726,1.654 1.07,1.567 -1.24,1.409 -0.653,2.045 2.354,1.328 -0.879,1.603 -0.383,1.632 1.21,1.597 -1.335,1.604 0.267,1.607 -0.578,1.603 0.564,1.609 1.035,1.712 -2.539,1.513 3.171,1.576 -1.932,1.647 0.664,1.522 -0.332,1.61 -0.133,1.642 1.797,1.683 -2.307,1.505 0.44,1.61 1.348,1.63 -1.536,1.621 0.337,1.609 0.666,1.842 -2.387,1.498 1.285,1.496 0.812,1.391 0.027,1.839 0.093,1.644 z"
         style="fill:#231f20;fill-opacity:1;fill-rule:nonzero;stroke:none"
         transform="matrix(1.3333333,0,0,-1.3333333,649.2824,75.369467)" />
      <path
         id="path6"
         d="m 0,0 -1.297,-2.172 -1.664,0.584 -1.693,-0.619 -1.684,1.326 -2.196,-1.256 -0.841,2.327 2.475,1.077 -0.239,1.886 -0.984,1.508 0.411,1.731 -0.988,1.424 0.714,1.639 0.535,1.669 0.461,0.619 0.853,-0.366 2.169,-0.521 0.543,-1.853 -0.181,-2.019 0.675,-1.575 0.947,-1.3 0.312,-1.985 1.482,-1.057 1.049,-1.412 1.497,-1.1 z m 37.134,-30.466 -1.108,1.382 -0.409,1.751 0.179,1.91 -1.46,0.976 -1.567,0.97 0.335,2.091 -2.482,0.1 -1.715,1.134 1.173,2.448 -2.227,0.615 -1.216,1.246 0.729,2.253 -0.616,1.561 -1.895,0.824 0.223,2.054 -0.83,1.77 -3.095,-0.89 -0.449,1.955 -1.239,1.129 0.128,1.907 -0.013,1.98 -1.665,0.978 -1.219,1.186 -0.886,1.288 -1.848,0.697 -0.434,1.651 -0.855,1.367 -0.17,1.675 -0.935,1.453 -0.814,1.622 -1.742,0.579 -0.352,1.818 -1.803,0.876 -0.13,1.53 -0.925,1.875 -1.491,0.505 -0.848,1.474 -0.854,1.222 -0.605,1.567 -0.956,1.332 -0.057,1.767 -1.311,1.119 -0.909,1.547 -0.667,1.366 -2.336,0.142 0.216,2.342 -0.536,1.634 -0.943,1.332 -1.761,0.637 -1.242,1.311 0.106,1.91 -1.099,1.184 -2.467,0.372 1.199,2.541 -1.247,1.214 -0.496,1.624 -0.613,1.594 -2.718,-0.303 0.535,2.789 -0.993,1.237 -1.922,0.636 -0.041,1.929 -0.721,1.641 -2.051,0.145 -0.168,-1.345 0.686,-1.471 -0.393,-1.927 -2.258,-1.532 2.515,-1.381 -0.504,-1.835 -1.043,-1.634 1.247,-1.564 0.664,-1.783 -0.503,-1.803 -0.356,-1.213 0.722,-1.802 -1.64,-1.597 1.091,-1.653 -0.492,-1.637 0.511,-1.639 0.116,-1.515 -0.151,-1.743 -0.271,-1.691 0.496,-1.627 -1.995,-1.62 1.377,-1.691 0.659,-1.603 -0.025,-1.833 -1.775,-1.659 1.411,-1.397 -0.194,-1.559 -0.806,-1.751 0.896,-1.557 -0.301,-1.674 1.954,-1.672 -2.219,-1.606 0.623,-1.683 -0.535,-1.58 2.058,-1.479 -1.684,-1.688 -0.724,-1.784 0.66,-1.798 0.616,-1.466 -1.205,-1.62 0.251,-2.076 1.089,-1.226 -0.461,-1.326 -0.477,-1.905 1.034,-1.641 -1.121,-1.643 2.159,-1.38 -1.842,-1.619 0.362,-2.102 0.543,-1.482 -0.577,-1.65 -1.423,-1.615 1.215,-1.463 1.445,-0.67 0.582,-2.64 1.702,1.827 1.674,0.992 1.354,-1.896 1.682,0.105 1.735,-1.042 1.543,2.698 2.801,-1.991 -1.7,2.455 -0.152,1.537 0.512,1.501 0.61,1.65 0.665,1.698 -1.883,1.213 -0.949,2.067 2.32,1.331 -1.239,1.391 1.332,1.688 -0.107,0.909 1.022,0.713 1.538,-1.409 1.44,1.623 2.067,-0.757 1.627,1.646 1.379,-2.88 1.317,2.969 1.872,-1.115 1.793,0.298 1.575,-1.676 1.438,2.397 2.078,-0.407 -0.641,-2.508 1.186,-1.447 1.381,-1.199 2.251,-0.148 -1.119,-2.152 0.714,-1.809 1.901,-0.594 0.483,-1.415 1.382,-1.191 1.505,-0.44 -0.199,-2.341 1.844,-0.968 0.037,-1.766 1.766,-0.283 1.681,0.609 1.866,-0.661 1.492,0.967 1.804,0.453 1.752,-0.91 1.534,-1.011 1.622,0.458 1.633,0.493 0.975,0.454 0.344,1.354 z m -58.052,87.6 -0.715,-1.986 0.607,-0.043 0.041,0.328 z"
         style="fill:#231f20;fill-opacity:1;fill-rule:nonzero;stroke:none"
         transform="matrix(1.3333333,0,0,-1.3333333,682.08867,106.936)" />
      <path
         id="path7"
         d="m 0,0 0.619,0.847 1.441,0.919 0.518,1.564 1.44,0.879 1.704,0.436 0.359,1.735 0.9,1.516 2.624,-0.137 -1.161,3.047 2.469,-0.06 1.776,0.718 -0.16,2.032 2.449,-0.353 0.52,3.378 0.418,-2.754 0.781,-1.983 -2.59,-1.251 0.866,-1.611 1.144,-1.668 -0.859,-1.802 0.918,-1.373 0.985,-1.277 0.946,-1.348 1.066,-1.227 0.529,-1.913 3.112,0.838 -0.112,-2.475 1.582,-0.352 0.588,-2.1 1.169,-1.094 1.288,-1.584 0.552,2.084 -1.996,1.657 2.066,1.549 -2.239,1.401 1.583,1.908 -1.293,1.633 1.543,1.491 -0.991,1.661 0.205,1.715 1.791,1.553 -1.309,1.682 0.468,1.661 -1.378,1.62 1.777,1.378 0.16,1.902 -0.363,1.656 -0.376,1.564 -1.576,1.493 -0.495,1.878 1.37,1.509 0.483,1.609 0.306,1.68 -1.716,1.701 2.264,1.492 -1.859,1.727 0.793,1.542 -0.2,1.702 -0.08,1.734 0.918,1.635 -1.409,1.772 1.08,1.827 -0.577,1.892 -2.418,-0.046 -0.313,-2.162 -0.138,-2.272 -2.577,0.503 -0.971,-1.507 -0.322,-1.74 -0.772,-1.677 -2.7,0.769 0.054,-2.584 -0.525,-1.56 -1.604,-1.055 -1.341,-0.862 -0.525,-1.845 -1.996,-0.5 L 9.504,27.597 8.461,26.06 7.379,24.567 5.967,23.969 4.595,22.985 4.177,21.07 2.29,20.661 1.341,19.132 0.785,17.487 -1.409,17.688 -1.637,15.253 -3.347,14.792 -3.285,12.28 -5.998,12.753 -6.37,10.77 -7.419,9.522 -8.896,8.858 l -1.107,-1.254 -0.623,-1.793 -1.562,-0.977 -1.854,-0.557 -1.336,-0.884 0.777,-2.706 -1.928,-0.566 -1.717,-0.548 -1.487,-1.469 2.721,-0.309 0.315,-1.745 0.808,-1.709 1.273,-0.745 0.963,-1.431 1.443,-0.852 0.478,-1.679 1.73,-0.733 1.652,-0.356 1.43,-1.034 0.497,-2.067 2.332,0.084 -0.609,-2.59 1.765,-0.871 0.851,-1.484 1.834,-0.471 1.044,-1.106 1.048,-1.818 1.118,-0.652 0.58,-1.807 1.103,-1.62 2.499,0.551 0.736,-1.69 0.896,-1.428 1.294,-0.948 0.871,-1.437 1.157,-1.237 1.091,-1.625 1.74,-0.133 -0.005,-2.224 2.899,0.72 1.56,-1.376 -0.284,-2.3 1.331,-1.262 1.062,-1.069 2.838,0.553 -0.228,-2.517 1.961,0.545 0.907,-2.718 1.694,0.756 1.677,0.51 1.624,0.812 1.617,-1.577 1.661,0.821 1.477,1.064 1.746,0.695 1.687,-1.667 1.567,0.367 1.636,-1.138 0.468,1.244 1.013,1.421 -1.859,0.552 -1.069,1.241 -0.719,1.891 -1.436,0.861 -2.574,-0.574 0.106,2.401 -1.646,0.702 -0.884,1.213 -0.164,2.467 -2.513,-0.216 -1.456,0.711 -1.533,0.602 -0.188,2.036 -1.311,1.398 -1.55,0.501 -0.598,2.004 -2.246,0.078 -0.654,1.735 -1.354,1.079 -0.386,1.411 -1.725,0.789 -0.583,1.757 -1.279,1.166 -1.65,0.524 -0.758,1.609 -0.825,1.306 -1.7,0.771 -1.763,0.375 -0.504,1.969 -1.552,0.857 -1.15,0.827 -0.981,1.636 -0.95,1.322 -0.979,1.382 -1.83,0.524 -1.306,1.256 -0.087,2.062 z"
         style="fill:#231f20;fill-opacity:1;fill-rule:nonzero;stroke:none"
         transform="matrix(1.3333333,0,0,-1.3333333,281.69653,92.439467)" />
      <path
         id="path8"
         d="m 0,0 -2.144,-0.054 -2.211,0.336 0.326,2.155 -0.627,1.627 -2.015,0.381 -0.834,1.279 -0.73,2.416 -2.236,-0.585 -1.406,-0.017 -1.849,-0.837 -1.541,1.649 -1.764,-0.814 -1.504,-1.069 -1.746,-0.271 -1.55,0.708 -1.581,-0.55 -1.764,0.397 -1.62,0.086 -1.75,0.155 -1.493,-0.675 -1.638,-1.045 -1.41,1.522 -1.835,1.28 -1.678,-2.905 -1.676,1.87 -1.647,-0.998 -1.655,-0.259 -1.313,2.387 -1.854,-1.916 -1.718,1.221 -1.591,0.252 -1.843,0.377 -1.286,-2.043 -1.915,0.074 -1.509,0.636 -1.544,0.811 -1.951,-1.795 -1.6,0.274 -1.61,-0.22 -1.699,0.434 -1.613,1.119 -1.52,-1.644 -1.851,0.243 -1.528,0.067 -1.439,-0.041 -1.952,0.069 -1.647,-1.024 -3.101,0.882 3.759,0.894 0.415,1.737 1.44,1.048 0.564,1.934 -0.93,2.181 0.689,2.019 2.85,-0.344 0.054,1.976 0.4,1.675 1.476,1.175 0.774,1.437 0.935,1.368 1.311,1.15 1.33,1.088 1.114,1.653 -0.768,2.173 2.091,0.436 1.666,0.881 1.563,1.602 -1.761,2.518 2.359,0.493 -0.019,2.093 0.765,2.377 2.417,-0.119 1.544,-0.728 1.807,-1.368 1.442,0.767 1.431,-0.659 1.871,-0.746 1.621,1.937 1.864,-0.968 1.316,2.241 1.596,-1.255 1.035,1.353 0.862,1.21 1.493,1.311 -0.501,2.201 1.176,1.147 1.524,0.895 1.105,0.346 -0.214,-1.371 -1.04,-1.193 0.17,-1.88 -0.365,-1.712 -2.03,-0.564 -0.105,-1.915 1.087,-1.854 1.924,-0.004 0.614,-1.584 1.113,-1.213 -0.026,-2.269 2.111,-0.218 2.018,-0.67 -0.409,-2.506 -2.431,-0.289 -0.781,-1.424 -0.233,-1.741 -0.888,-1.362 -0.974,-1.277 -0.852,-1.397 0.005,-1.752 -0.84,-1.658 -2.643,0.056 -0.866,-1.538 -0.615,-1.582 -1.432,-1.097 0.454,-1.476 1.27,-0.208 1.568,-1.146 1.79,0.101 1.353,0.9 1.677,-0.216 1.383,0.292 1.895,0.813 1.491,-0.169 1.297,-2.508 1.615,1.367 1.816,0.032 0.825,1.684 0.049,1.984 2.019,0.821 -1.005,2.68 2.073,1.017 1.314,0.543 2.354,0.522 -0.518,-2.977 1.604,-0.852 1.236,-0.995 -0.19,-2.052 0.94,-1.58 1.316,-1.603 1.952,-0.473 1.157,-0.818 1.5,-0.982 0.212,-2.365 3.006,1.258 -0.308,-2.672 1.8,-1.016 -0.088,-2.291 z m 24.162,-4.408 -1.24,1.497 -1.642,0.431 0.18,2.483 -1.828,0.514 -2.519,0.09 0.698,2.829 -1.136,1.473 -1.267,0.897 -1.785,0.747 -1.044,1.222 -0.428,1.733 -1.457,0.916 0.025,1.928 -2.568,0.115 -0.413,1.931 -1.482,0.91 -1.558,0.375 -1.334,1.391 -1.522,1.29 0.25,2.08 -1.343,1.015 -1.217,1.224 -0.158,2.109 -1.89,0.645 -2.56,-0.202 0.496,2.532 -1.314,1.097 -2.542,0.149 1.385,2.917 -1.138,0.618 0.882,0.289 0.397,1.723 -0.712,2.346 2.208,0.464 -0.304,2.068 1.657,0.889 -0.382,2.018 2.336,0.428 0.053,1.807 0.364,1.766 1.947,0.728 1.903,0.699 -0.82,2.104 -0.367,2.001 2.285,0.807 0.596,1.555 1.322,0.99 1.392,1.122 0.14,1.869 0.912,0.998 0.524,2.209 0.258,1.151 2.2,0.865 -1.033,2.15 2.171,0.804 L 10.028,66.249 8.33,66.028 6.508,66.532 5.441,65.503 3.465,66.9 1.701,66.7 -0.001,67.075 -1.665,66 l -1.391,-0.127 -1.41,-0.239 -2.249,-0.113 0.171,-1.983 -0.326,-1.877 -1.663,-0.657 -0.532,-1.265 -0.686,-1.751 -2.053,-0.586 -0.125,-1.864 -0.322,-1.865 -1.14,-1.011 -1.627,-0.848 0.621,-2.289 -1.201,-1.14 -1.162,-1.046 -0.921,-1.689 -0.743,-1.078 -0.343,-1.827 -0.959,-1.212 -0.514,2.142 -1.337,0.887 -1.163,1.14 -0.276,2.054 -1.353,0.789 -1.549,0.339 -1.901,0.174 -0.489,2.084 -0.96,-1.475 -0.076,-2.092 -1.602,0.025 0.544,1.984 0.291,2.242 -2.113,0.624 -1.78,-2.096 -1.54,1.95 -1.53,-2.083 -1.635,1.783 -1.664,-0.087 -1.54,-0.583 -1.7,-0.833 -1.677,1.738 -1.285,-0.623 1.349,0.655 0.223,1.895 -0.364,2.206 2.486,0.435 0.705,1.431 0.338,2.107 0.558,1.3 1.042,1.432 1.29,1.126 0.275,1.946 2.692,-0.019 0.789,1.64 0.084,1.783 1.678,0.909 1.217,0.819 1.713,-0.948 1.787,1.921 1.381,-2.226 1.65,0.974 1.802,-0.182 1.642,0.157 1.561,0.936 2.005,0.821 1.28,-2.612 1.842,0.388 1.541,0.855 1.549,0.001 1.646,0.083 1.473,-2.049 1.874,1.763 1.467,1.749 2.112,-0.614 1.62,-1.266 1.497,-1.326 1.686,1.797 1.518,-0.189 1.748,-0.545 1.568,0.98 1.574,-1.062 1.823,0.346 1.666,-1.152 2.006,0.537 0.515,2.096 1.972,-0.306 1.344,1.242 -1.043,2.369 1.559,0.96 0.539,1.678 1.351,0.769 0.13,1.747 2.049,0.61 1.793,0.775 -0.61,1.531 -1.306,-0.417 -1.667,0.628 -1.753,1.133 -1.527,-2.719 -1.635,1.709 -1.777,1.865 -1.346,-1.387 -1.357,1.028 L 8.215,85.281 6.688,84.107 4.924,84.71 3.181,83.549 2.005,84.07 l -1.91,-0.139 -1.531,0.862 -1.643,-1.149 -1.784,0.225 -1.464,0.215 -1.606,1.03 -1.745,0.373 -1.378,-2.249 -1.817,0.791 -1.477,0.389 -1.525,-0.402 -1.71,0.673 -1.441,-1.713 -1.62,1.516 -1.657,-0.084 -1.874,-0.317 -1.202,0.439 -1.812,0.544 -1.898,0.318 -1.382,-2.234 -1.588,1.559 -1.586,-0.092 -1.708,0.471 -1.865,-0.611 -1.472,-1.724 -1.394,2.019 -1.894,-0.262 -0.093,-2.459 -1.646,-0.703 -0.28,-1.407 -0.837,-1.602 -1.411,-1.1 -1.599,-0.75 0.008,-1.935 0.05,-2.197 -2.008,-0.989 -1.802,-0.396 -0.651,-1.567 -0.668,-1.711 -0.206,-1.632 -0.505,-1.628 -0.912,-1.844 -1.616,-0.359 -1.417,-1.384 -0.613,-1.013 -1.859,-0.871 -0.726,-2.01 1.092,-2.318 -2.953,0.234 -0.31,-1.981 -1.383,-1.007 -0.835,-1.613 0.798,-2.563 -2.945,0.192 1.505,-2.678 -1.464,-1.337 -2.367,-0.458 0.882,-2.534 -3.113,0.355 -0.154,-2.232 0.44,-1.98 -1.122,-1.251 -1.941,-0.5 0.132,-2.366 -0.426,-1.444 -1.855,-0.856 0.33,-2.348 -2.369,-0.219 0.279,-2.048 -1.411,-1.169 -0.731,-1.417 -1.981,-0.842 0.148,-1.924 -1.959,-0.7 0.55,-2.004 -1.463,-1.288 -0.798,-1.434 -2.601,-0.067 -0.204,-1.994 -0.728,-1.6 -0.441,-1.354 -1.036,-1.694 -0.654,-1.342 -0.765,-1.538 -0.782,-1.45 -2.996,-0.114 0.282,-2.366 0.417,-2.194 -2.184,-0.133 -0.836,-1.431 -0.464,-1.759 -2.18,-1.921 2.709,1.427 1.729,0.276 1.609,-0.566 1.49,0.544 1.784,-0.062 1.573,-1.328 1.682,0.074 1.742,1.067 1.743,-2.163 1.501,1.851 1.548,0.51 1.909,-0.303 1.159,0.369 1.864,-1.286 1.479,1.138 1.682,-0.528 1.683,-0.544 1.671,0.404 1.315,-0.527 1.961,-1.217 1.651,1.313 1.645,1.036 1.451,0.494 1.902,-0.4 1.514,-2.318 1.612,1.578 1.476,0.944 1.682,-0.011 1.722,-0.065 1.265,-1.515 1.957,-0.096 1.516,1.167 1.752,-1.565 1.76,-0.192 1.552,0.857 1.69,-0.363 1.597,1.459 1.458,-1.577 1.781,1.222 1.701,0.173 1.573,-1.258 1.486,1.797 1.939,-1.493 1.471,1.203 1.66,-0.469 1.627,-0.794 1.347,1.754 1.743,0.737 1.586,-1.724 1.895,-0.162 1.831,-0.454 1.457,-0.112 1.543,1.766 1.599,-1.6 1.433,-0.187 1.886,-0.557 1.639,1.628 1.605,0.164 1.787,-1.304 1.525,1.646 1.768,-1.125 1.544,2.031 0.848,-0.929 0.81,1.517 0.65,0.138 0.967,-1.317 2.745,0.18 -0.39,-2.656 1.929,0.783 1.489,-0.033 1.295,0.565 2.127,-0.837 1.681,0.962 1.515,-0.337 1.799,0.797 1.598,-1.339 1.558,-0.52 1.858,-0.302 1.009,1.001 z"
         style="fill:#231f20;fill-opacity:1;fill-rule:nonzero;stroke:none"
         transform="matrix(1.3333333,0,0,-1.3333333,152.23053,146.18373)" />
      <path
         id="path9"
         d="m 0,0 -1.479,-0.571 0.572,-1.702 1.577,-1.772 -2.911,-1.549 1.434,-1.793 -0.698,-1.143 0.784,-1.895 0.628,-1.71 0.213,-1.648 0.384,-1.446 0.42,-1.892 -2.225,-1.498 -0.22,-1.946 1.916,-1.324 0.145,-1.953 -2.244,-1.268 1.012,-1.741 0.196,-1.659 0.559,-1.637 -0.152,-1.434 0.236,-1.762 -0.054,-1.685 -1.359,-1.394 -0.502,-1.937 1.608,-1.59 -1.857,-1.701 2.068,-1.46 -0.455,-1.601 0.27,-2.16 0.081,-1.039 -0.842,-2.175 1.977,-1.447 -1.292,-1.587 0.647,-1.76 -2.62,-1.474 2.025,-1.578 -0.462,-1.828 0.434,-1.528 -0.352,-1.569 -0.878,-1.516 1.29,-1.685 0.471,-1.82 -0.749,-1.71 0.432,-1.755 0.966,1.484 -0.161,2.236 0.844,1.244 1.542,1.044 1.057,1.319 0.279,1.807 1.443,1.063 2.252,0.388 -0.259,2.291 0.045,1.936 1.733,0.94 1.732,0.826 -0.891,2.192 1.011,1.596 -1.99,1.387 0.482,1.866 1.861,1.595 -1.581,1.47 1.244,1.422 0.179,1.849 -1.164,1.558 1.205,1.611 -1.945,1.388 0.816,1.838 0.699,1.503 0.653,1.838 -1.993,1.422 0.036,1.735 -0.324,1.738 1.968,1.426 -1.143,1.62 0.144,1.529 0.445,1.701 0.99,1.235 -0.893,2.001 -1.184,1.466 -0.222,1.82 1.673,1.519 -0.698,1.674 0.008,1.638 -1.93,0.539 0.496,2.541 -2.382,-0.31 -0.987,1.258 -0.173,2.07 -1.056,1.032 -1.402,1.017 -1.613,0.46 -1.488,0.338 z"
         style="fill:#231f20;fill-opacity:1;fill-rule:nonzero;stroke:none"
         transform="matrix(1.3333333,0,0,-1.3333333,323.91187,34.9068)" />
      <path
         id="path10"
         d="m 0,0 -1.62,-0.809 -1.827,0.315 -1.389,0.75 -2.096,-0.976 -1.34,0.031 -1.864,1.783 -1.313,-1.965 -1.703,-0.259 -1.645,1.665 -1.449,-1.858 -1.724,0.688 -1.85,-0.126 -1.473,1.512 -1.549,-1.84 -1.601,1.405 -1.653,0.01 -1.623,-0.167 -1.588,0.432 -1.614,-1.212 -1.376,-0.47 -1.911,0.592 -1.701,-0.721 -1.424,1.858 -1.675,0.053 -1.466,-2.11 -1.82,0.716 -1.652,-0.563 -1.49,-0.221 -1.67,0.855 -1.628,-0.129 -1.549,-0.85 -1.927,0.021 -1.629,0.097 -1.233,0.505 -1.84,0.219 -1.645,-0.056 -1.619,-0.149 -1.656,0.51 -1.536,0.67 -1.766,0.476 -1.464,-1.678 -1.638,-0.067 -1.658,0.503 -1.566,0.096 -1.611,-0.085 -1.57,0.972 -1.708,-0.517 -1.659,-0.077 -1.314,0.74 -1.912,0.211 -1.668,-0.908 -1.617,0.404 -1.486,-1.49 -1.731,-0.491 -1.566,0.615 -0.613,-0.929 -1.058,-0.595 -2.256,0.051 -1.004,-1.848 0.641,-2.179 -0.51,-1.714 -1.296,-1.232 -1.654,-1.263 0.472,0.165 -1.464,-1.426 -1.251,-2.081 1.607,-0.333 1.747,-0.217 1.514,1.609 1.772,-0.646 1.492,-0.778 1.724,0.002 1.683,0.067 1.606,1.131 1.602,-0.406 1.575,0.834 1.642,-0.987 1.638,0.986 1.603,-1.197 1.619,-1.084 2.081,0.128 1.34,3.153 1.394,-3.024 1.798,0.877 1.657,-0.255 1.546,0.687 1.64,0.793 1.578,-1.816 1.609,0.528 1.905,0.897 1.402,-0.518 1.65,-0.301 1.613,-0.736 1.701,0.205 1.733,0.56 1.469,1.36 1.651,-0.763 1.643,-0.36 1.409,1.753 1.787,-0.842 1.582,-1.198 1.697,0.423 1.552,0.572 1.615,0.93 2.058,-0.027 1.194,-2.303 1.422,0.889 -1.323,-0.761 -1.425,-0.774 -0.849,-1.188 -1.579,-1.017 -0.427,-1.991 -0.849,-1.558 -0.526,-2.169 -3.07,1.623 -0.394,-2.447 -0.968,-1.468 -0.764,-1.126 -1.437,-1.44 -0.42,-1.285 -2.164,-0.633 0.067,-2.221 -1.83,0.161 0.728,1.089 -0.574,1.63 -0.2,1.475 0.821,1.697 -0.69,1.717 -1.575,1.285 0.56,1.542 0.529,1.579 0.767,2.28 -2.356,-0.669 -1.594,0.555 -1.649,0.1 -1.584,-0.899 -1.626,-0.96 -1.979,0.27 -1.239,1.623 -1.507,-0.768 -0.554,-1.663 0.588,-1.837 0.468,-1.383 -1.18,-1.7 -0.136,-1.693 -0.149,-1.667 1.337,-1.579 0.314,-1.633 -1.637,-1.775 0.735,-1.547 -0.474,-1.637 0.638,-1.586 -1.596,-1.7 1.037,-1.805 1.567,-1.388 -0.649,-1.759 0.614,-1.602 -1.113,-1.375 -1.467,-1.878 2.651,-1.599 -1.22,-1.688 -0.199,-1.645 -0.593,-1.536 0.987,-1.714 0.08,-1.643 -1.082,-1.692 1.457,-1.587 -1.076,-1.364 -0.35,-1.886 1.654,-1.669 -0.418,-1.711 -0.722,-1.58 -0.944,-1.709 1.57,-1.532 0.994,-1.589 -1.205,-1.713 -0.204,-1.436 -0.198,-1.744 0.033,-1.748 1.384,-1.377 -0.166,-1.941 -2.255,-1.406 1.427,-1.829 -0.924,-2.927 2.924,1.721 1.378,-0.528 1.822,0.78 1.688,-1.025 1.446,0.261 1.702,0.502 1.56,-0.441 1.468,0.317 -0.326,1.439 2.316,1.316 -1.702,1.705 0.321,1.992 1.141,1.607 -2.446,1.604 0.073,1.786 0.326,1.552 0.654,1.668 -1.333,1.463 0.142,1.768 1.833,1.882 -0.568,1.425 0.284,1.535 -0.805,1.845 0.621,1.766 -0.908,1.642 0.205,1.535 -0.006,2.32 0.994,-2.146 1.096,-1.568 2.391,0.52 0.732,-1.687 1.532,-0.747 0.731,-1.694 1.642,-0.186 0.187,-2.42 1.103,-1.359 2.408,0.282 0.878,-1.588 1.54,-0.764 0.537,-1.686 0.429,-2.253 2.045,-0.167 1.545,-0.863 1.19,-0.511 2.097,-0.732 -0.129,-2.472 1.715,-0.276 1.028,-1.459 2.185,-0.181 -0.097,-2.393 1.757,-0.902 0.2,-1.949 1.309,-1.157 1.03,-1.356 2.522,1.15 1.016,-3.023 1.638,2.346 1.77,0.334 1.627,-1.034 1.632,0.224 1.668,-1.266 1.943,0.416 1.355,0.57 1.787,0.211 1.365,0.096 -0.16,1.783 -1.384,1.092 -1.743,0.271 -2.186,0.249 0.122,2.312 -1.791,0.054 -1.685,1.053 -0.917,1.727 -0.668,1.196 -0.744,1.593 -1.931,-0.199 -0.531,2.584 -1.233,0.653 -1.716,0.729 -0.096,1.994 -2.068,-0.059 -1.696,0.946 -0.64,1.722 -1.138,1.125 -0.312,1.817 -1.537,0.975 -0.869,1.504 -2.396,-0.341 0.45,3.108 -3.109,-1.303 0.454,2.814 -2.011,0.415 -1.096,1.217 -1.233,0.873 -1.052,1.746 -0.718,1.161 -1.382,0.922 -1.148,1.088 -0.683,1.677 -2.324,0.036 -0.575,1.581 -1.122,1.411 -1.784,0.674 -0.749,1.035 0.608,1.526 1.37,1.08 1.652,0.624 1.526,0.921 -0.434,2.329 1.594,1.018 0.778,1.51 1.762,0.519 0.737,2.131 2.375,-0.682 1.769,0.943 0.788,1.663 0.362,1.412 1.261,1.163 1.04,1.361 1.429,0.935 0.505,1.688 1.753,0.283 1.429,1.296 0.274,1.807 0.946,1.913 1.523,0.345 2.439,0.314 -0.396,2.294 0.943,1.53 1.858,0.224 0.843,1.508 0.861,1.693 1.604,0.626 1.672,0.497 0.162,1.586 0.236,2.383 3.309,-0.87 0.661,1.931 0.569,1.671 2.539,-0.372 1.08,1.979 -1.162,2.582 2.539,-0.277 z"
         style="fill:#231f20;fill-opacity:1;fill-rule:nonzero;stroke:none"
         transform="matrix(1.3333333,0,0,-1.3333333,309.7556,32.696267)" />
      <path
         id="path11"
         d="m 0,0 0.753,-1.634 -0.126,-2.043 0.65,-1.094 -0.147,-1.837 -0.574,-1.53 1.613,-1.481 -2.057,-1.556 2.043,-1.774 -1.531,-1.585 1.516,-1.368 0.572,-1.94 -1.377,-1.512 1.786,-1.301 -2.474,-1.846 1.129,-1.659 0.695,-1.687 -1.701,-1.493 1.153,-1.548 -0.763,-2.615 1.903,1.793 0.388,1.964 1.359,0.94 1.65,0.745 0.797,1.818 1.673,0.801 -0.228,2.804 2.449,-0.273 0.907,1.335 0.096,2.057 1.65,0.644 2.019,1.13 -1.696,1.62 0.202,1.727 0.925,1.571 -1.725,1.401 1.314,1.551 -0.434,1.507 -1.317,1.358 0.22,1.93 2.204,1.294 -1.05,1.802 1.779,0.533 1.653,-1.165 1.721,0.532 1.416,0.142 1.757,0.641 1.483,-1.812 1.765,0.14 1.648,0.757 1.886,-1.557 1.379,1.588 -0.707,-1.328 0.092,-1.668 2.498,-1.682 -2.568,-1.214 -0.191,-1.593 -0.644,-1.718 0.676,-1.934 1.416,-1.173 0.781,-1.853 -1.617,-1.26 1.072,-0.29 0.817,-0.948 2.099,0.29 1.294,-0.517 1.692,1.119 1.494,-2.066 1.767,1.472 1.946,-0.757 1.064,0.987 0.881,0.785 -0.38,1.65 0.218,1.854 0.846,1.549 -0.985,1.677 -0.318,1.611 1.329,1.485 -0.98,1.7 0.877,2.082 -2.672,1.082 1.664,1.696 0.037,1.777 0.609,1.58 0.313,1.798 -1.06,1.663 -1.39,1.582 0.415,1.857 2.283,1.491 -2.996,1.169 1.847,1.947 0.354,1.615 0.261,1.816 -0.691,1.529 -0.025,1.598 1.482,1.757 -1.967,1.561 0.491,1.582 0.241,1.772 1.216,1.675 -0.925,1.589 1.059,1.952 -2.304,1.344 0.603,1.65 1.151,1.501 -1.593,1.511 -0.674,1.857 0.768,1.742 1.05,1.676 -1.003,1.548 0.661,1.685 -0.042,1.831 -0.649,1.352 1.007,1.59 -1.768,1.788 1.908,1.626 -0.708,1.691 0.394,1.471 -1.342,2.004 2.041,1.632 -1.544,1.626 0.322,1.31 -0.275,2.093 -1.681,-1.025 -1.01,-1.579 -0.558,-1.589 -0.786,-1.84 -1.36,-0.774 -0.757,-1.367 -2.461,0.227 -0.856,-2.171 -1.823,-0.257 -1.201,-1.246 -0.501,-1.801 -1.332,-1.803 2.295,-1.395 -1.845,-1.741 2.594,-1.589 -1.153,-1.892 -1.623,-1.246 0.732,-1.571 -0.129,-2.097 1.456,-1.224 -0.458,-1.62 0.618,-1.579 0.477,-1.683 0.01,-1.597 -0.673,-1.673 -2.026,-1.479 0.712,-1.753 0.659,-1.575 -0.986,-1.681 0.785,-1.561 0.562,-1.473 -0.661,-1.76 0.524,-1.775 -1.382,-1.403 0.094,-1.726 1.007,-1.546 -0.906,-0.844 -0.848,-0.667 -1.603,-1.062 -1.757,0.868 -1.452,0.312 -1.99,-0.636 -1.657,0.413 -1.662,0.052 -1.711,-0.713 -1.749,0.296 -1.495,0.729 0.287,1.187 -0.495,1.622 -0.934,1.675 1.514,1.852 -1.087,1.539 0.807,1.758 -0.888,1.589 1.239,1.676 -0.68,1.68 0.96,1.709 -1.339,1.674 -1.321,1.93 2.931,1.159 -0.105,2.056 -1.05,1.783 -1.871,-0.883 -1.074,-1.429 -1.249,-1.173 0.043,-2.204 L 7.959,32.594 6.974,31.156 5.225,30.476 4.503,28.89 3.405,27.618 2.728,25.9 1.062,25.082 0.512,23.5 1.357,21.474 1.093,19.891 1.547,18.105 -0.37,16.217 0.432,14.676 1.526,12.996 0.755,11.289 1.283,9.721 2.604,8.104 0.752,6.415 1.222,4.692 1.274,3.416 1.887,0.99 Z"
         style="fill:#231f20;fill-opacity:1;fill-rule:nonzero;stroke:none"
         transform="matrix(1.3333333,0,0,-1.3333333,435.48187,128.6512)" />
      <path
         id="path12"
         d="m 0,0 0.34,-1.38 -0.562,-1.785 -2.134,-1.253 1.441,-1.741 0.77,-1.619 -1.881,-1.697 2.528,-1.251 -0.342,-1.942 -2.637,-1.214 2.119,-1.57 0.893,-3.108 -3.152,0.455 -1.581,1.016 -1.656,0.314 -1.725,-0.232 -1.968,0.185 -1.51,-1.31 -1.428,1.976 -0.875,-0.086 -1.186,0.363 0.018,1.687 -0.093,1.648 -1.19,1.788 1.234,1.391 -1.072,1.198 1.276,1.875 -0.887,1.555 1.111,1.534 -0.283,1.618 0.627,1.536 0.123,1.919 -0.268,1.381 -0.905,1.767 0.566,1.715 -0.431,1.731 0.27,1.706 -1.071,1.636 1.847,1.519 -0.383,1.784 -0.017,1.689 -0.545,1.726 0.466,1.602 -0.871,1.634 -0.006,1.683 1.309,1.554 0.064,1.861 -2.175,1.336 1.677,1.697 0.265,1.743 -0.797,1.722 -1.301,1.843 2.266,1.425 -1.678,1.607 0.886,1.677 -0.682,1.664 0.475,1.464 0.71,1.667 0.16,1.988 -0.837,1.343 1.045,1.717 -2.394,1.567 2.439,1.829 -0.795,1.399 1.247,0.311 1.761,0.022 1.413,0.692 1.994,-0.363 1.652,0.15 1.56,-1.21 1.788,0.35 0.766,-0.695 0.696,-0.7 0.712,-1.726 -0.625,-2.007 -0.059,-1.252 -0.532,-2.045 1.023,-1.202 0.424,0.974 1.296,1.127 1.111,1.425 1.506,0.686 0.698,1.688 2.298,-0.332 0.658,2.257 2.627,-0.48 -0.326,2.376 1.678,1.067 0.579,1.612 2.061,0.196 -0.465,1.106 -0.511,0.404 -1.526,-0.318 -1.943,1.131 -1.474,-0.651 -1.421,0.208 -1.833,0.31 -1.659,-0.361 -1.674,-0.117 -1.615,0.281 -1.675,-0.867 -1.658,0.272 -1.676,-0.907 -1.664,1.487 -1.706,0.858 -1.562,-1.158 -1.616,-0.74 -1.64,0.492 -1.842,0.68 -1.489,0.065 -1.678,-0.737 -1.668,0.598 -1.352,-0.363 0.395,0.105 0.775,1.73 -0.801,2.049 1.852,0.876 1.243,1.317 0.829,1.411 -0.6,2.13 1.771,1.206 2.026,0.599 -0.144,2.222 1.832,-0.007 1.528,-0.426 1.619,1.009 1.541,-1.135 1.698,0.661 1.431,-1.633 1.76,0.908 1.608,0.687 1.56,-0.067 1.616,0.621 1.635,-0.989 1.579,0.555 1.707,-0.953 1.69,1.824 1.581,-0.82 1.499,-0.326 1.953,-1.524 1.249,1.855 1.422,-1.75 1.638,2.071 1.769,-0.201 1.606,0.227 1.682,0.992 1.543,-1.924 1.664,1.993 1.45,-1.742 1.445,-1.384 1.839,1.014 1.422,2.031 1.76,-1.518 1.639,0.49 1.557,-1.162 1.913,-0.17 1.525,0.37 1.516,0.85 1.557,-1.266 2.357,1.556 -1.794,-1.685 -1.023,-1.317 -1.249,-1.033 -1.876,-0.323 -0.904,-1.566 0.06,-2.006 -2.411,-0.197 -0.752,-1.703 -1.419,-0.87 -1.464,-0.747 -2.121,-0.825 1.207,-2.778 -2.143,-0.298 -1.223,-1.071 -1.476,-1.088 0.473,-2.45 -2.486,-0.23 -0.692,-1.555 -1.304,-1.003 -0.595,-1.725 -1.645,-0.729 -1.493,-0.81 -0.128,-2.572 -2.708,1.047 -0.21,-2.474 -2.566,0.253 0.087,-2.28 L 13.096,40.093 11.33,39.484 10.894,37.767 10.129,36.319 8.411,35.553 6.857,34.362 5.408,33.719 5.254,31.837 4.675,29.688 2.298,29.829 0.82,28.753 0.202,27.391 l -2.017,-0.848 0.829,-1.962 0.747,-1.719 -2.234,-1.481 0.55,-2.038 1.295,-1.324 -0.747,-1.6 1.698,-1.54 -1.032,-1.761 0.232,-1.79 -1.984,-1.29 0.96,-1.808 1.166,-1.278 -0.458,-2.005 -1.455,-1.672 2.61,-1.269 z"
         style="fill:#231f20;fill-opacity:1;fill-rule:nonzero;stroke:none"
         transform="matrix(1.3333333,0,0,-1.3333333,432.78667,128.99373)" />
      <path
         id="path13"
         d="m 0,0 0.504,1.398 0.095,1.877 -0.645,1.739 -0.681,1.842 1.574,1.503 -0.293,1.814 -0.677,1.572 -0.58,1 -0.655,1.715 -1.731,-0.78 -1.667,-1.53 -1.435,2.298 -1.865,-0.319 -1.353,-2.447 -1.486,2.212 -1.86,-1.036 -1.548,-0.011 -1.713,2.022 -1.489,-1.672 -1.621,-0.322 -1.575,-0.52 -1.466,0.934 -1.767,0.829 -1.507,-0.884 -1.673,-0.226 -1.67,-0.224 -1.656,-0.42 -1.602,-0.461 -2.332,1.007 0.88,2.071 0.406,1.984 3.012,-0.016 -0.815,2.28 1.247,1.2 0.718,1.254 0.919,1.736 0.65,1.141 1.219,1.285 0.816,1.276 1.229,1.232 0.772,1.558 -0.468,2.006 0.47,1.51 0.505,1.624 1.403,1.185 0.715,1.457 1.826,0.637 1.416,1.206 -1.111,2.475 1.39,1.196 2.22,0.596 -0.615,2.212 2.377,0.561 -0.869,2.316 0.805,1.674 1.963,0.606 0.086,1.712 1.092,1.21 1.987,0.841 0.148,1.87 0.654,1.334 0.223,1.753 -0.16,1.902 0.834,1.574 1.209,1.182 1.154,1.08 -0.058,1.984 2.456,0.462 0.579,1.546 -0.136,2.118 2.221,1.482 -2.479,-1.264 -1.505,1.376 -1.79,-1.105 -1.65,0.99 -1.6,0.845 -1.71,-0.222 -1.615,-0.619 -1.584,-1.109 -1.704,-0.517 -1.813,-0.241 -1.593,0.787 -1.705,1.557 -1.581,-0.72 -1.56,-0.589 -1.497,-0.868 -1.763,-0.261 -1.645,1.334 -1.605,0.007 -1.933,-1.171 -1.488,0.536 -1.783,1.561 -1.275,-0.642 -1.775,0.969 -1.775,-1.377 -1.58,-0.901 -1.639,0.72 -1.591,-0.085 -1.588,0.137 -1.717,-0.857 -1.32,-0.604 -1.67,1.868 -1.583,0.835 -1.95,-0.026 -1.495,-1.317 -1.786,-0.657 -1.681,2.107 -1.956,-1.276 0.565,-2.048 2.031,-0.166 1.525,-0.652 1.549,-0.822 1.839,-0.1 1.016,-1.415 0.23,-2.074 1.489,-0.793 1.76,-0.587 1.553,-0.711 0.986,-1.344 1.006,-0.602 1.38,-1.442 1.055,-1.311 1.699,0.348 1.597,-0.492 1.978,1.307 1.169,-1.919 1.512,1.388 1.757,-0.251 1.616,0.166 1.591,0.414 1.606,0.834 1.556,-1.743 1.598,0.618 1.638,0.507 2.363,-0.378 -0.201,-2.504 -1.055,-1.695 -1.586,-0.645 -1.446,-0.896 -1.118,-1.267 -0.371,-1.648 -0.539,-1.433 -0.626,-1.622 -0.941,-1.521 -1.494,-0.763 -0.971,-1.307 -1.282,-1.223 -0.368,-1.556 -1.225,-1.023 -0.206,-1.886 -0.07,-1.589 -0.56,-1.801 -1.975,-0.72 -0.291,-1.511 -0.456,-1.378 -0.297,-1.942 -1.35,-1.251 -1.026,-1.193 -0.33,-1.895 -1.998,-0.465 0.639,-1.994 -2.574,-0.595 -0.927,-1.32 -0.732,-1.144 -1.065,-1.544 1.11,-2.168 -2.568,-0.572 -0.81,-1.523 -0.765,-1.369 -1.095,-1.3 -0.818,-1.454 0.023,-1.967 -2.12,-0.826 -0.258,-1.385 -0.855,-1.376 -0.066,-1.858 -1.798,-0.567 0.205,-1.652 1.068,-0.025 1.638,-0.082 1.62,1.046 1.439,-1.498 1.837,0.708 1.525,-0.172 1.711,-0.418 1.538,0.912 1.569,-0.6 1.645,-0.674 1.69,0.599 1.512,-1.66 1.762,2.237 1.566,-0.747 1.643,-0.605 1.45,0.855 1.898,-0.325 1.491,-0.37 1.58,0.224 1.638,0.4 1.547,1.394 1.597,-2.188 1.761,0.845 1.752,1.055 1.575,-0.723 1.537,0.023 1.672,-1.326 1.513,1.901 1.642,-0.994 1.634,0.138 1.77,-0.963 1.401,0.99 1.701,-0.456 1.619,0.888 1.698,0.735 z"
         style="fill:#231f20;fill-opacity:1;fill-rule:nonzero;stroke:none"
         transform="matrix(1.3333333,0,0,-1.3333333,407.2948,128.92693)"
         inkscape:export-filename="path13.svg"
         inkscape:export-xdpi="96"
         inkscape:export-ydpi="96" />
    </g>
  </g>
</svg>
